<?xml version="1.0" standalone="no"?><!DOCTYPE svg PUBLIC "-//W3C//DTD SVG 1.1//EN" "http://www.w3.org/Graphics/SVG/1.1/DTD/svg11.dtd"><svg t="1605083787912" class="icon" viewBox="0 0 1835 1024" version="1.1" xmlns="http://www.w3.org/2000/svg" p-id="15725" width="134.3994140625" height="75" xmlns:xlink="http://www.w3.org/1999/xlink"><defs><style type="text/css"></style></defs><path d="M1141.93710733 132.997635c-30.108176 8.752302-69.464553 20.074264-87.452177 25.162063s-123.768755 54.368604-235.069182 109.510038C528.87667933 411.615799 510.85685533 421.044327 510.82465433 429.139723 510.77313233 441.833459 561.69620133 483.018868 577.44261633 483.018868c8.301484 0 37.997484-11.135195 65.993258-24.743447 27.995774-13.614692 140.912704-67.229786 250.925082-119.144654C1088.18676733 247.646994 1095.67033933 244.72956 1136.39205033 244.72956c32.304302 0 49.319447 3.761107 73.689358 16.300276 22.914415 11.78566 37.475824 15.276277 52.610416 12.590692 31.557233-5.596579 27.358189-23.80317-11.270441-48.836427-35.009208-22.682566-37.707673-29.921409-21.458918-57.434164 10.040352-16.995824 10.040352-19.269233-0.148126-34.803119-13.06727-19.945459-17.787975-19.919698-87.877232 0.450817z" p-id="15726" fill="#515151"></path><path d="M1666.81761033 338.113208c-27.164981-106.605484-79.440503-156.15678-142.181434-134.742944-24.273308 8.282164-33.225258 16.519245-77.514868 71.300025l-20.048503 24.801409-50.94239 0.412176c-35.208855 0.283371-57.86566 3.915673-73.335145 11.7599-12.313761 6.240604-37.38566 12.957786-55.708176 14.928503-27.660881 2.975396-36.290818 1.249409-50.755623-10.130516-22.412075-17.626969-61.935899-28.214742-84.341534-22.592403-9.660377 2.427975-123.330818 56.120352-252.612428 119.331422C633.33111933 523.695497 622.83350933 528.100629 585.27396233 528.074868c-44.701786-0.025761-61.459321-8.359447-108.408755-53.904906L446.16452833 444.377358H335.74641533c-106.521761 0-111.397031 0.573182-138.23356 16.300277-15.295597 8.97127-30.835925 21.941937-34.519748 28.833007-5.757585 10.75522-3.722465 13.807899 14.368201 21.529761 23.229987 9.917987 99.231396 72.620277 169.449459 139.811421 59.160151 56.616252 80.986164 66.025459 154.321308 66.540679 51.818264 0.373535 68.550038-2.878792 157.786164-30.649157 54.903145-17.085987 117.882365-32.632755 139.959547-34.54551 39.852277-3.458415 40.315975-3.310289 64.937056 21.549082 13.640453 13.762818 27.944252 30.752201 31.789082 37.759195 6.279245 11.450767 9.48005 11.991748 31.666717 5.37117 13.56961-4.050918 86.003119-24.691925 160.948327-45.848151l136.269283-38.486943 182.755019-13.576051C1507.77559733 611.495447 1603.53569833 605.383648 1620.06138333 605.383648c48.623899 0 60.879698-8.855346 65.632604-47.432453 5.12644-41.378616-5.809107-168.522063-18.876377-219.837987zM684.67924533 602.163522c-19.797333 0-31.067774-18.052025-19.771572-31.660277 4.656302-5.609459 13.55673-10.201358 19.771572-10.201358s15.11527 4.591899 19.771572 10.201358c11.296201 13.608252 0.025761 31.660277-19.771572 31.660277z m103.94566-51.232201c-17.362918-5.506415-21.046742-18.786214-9.711899-34.970566 10.987069-15.682013 11.850063-15.894541 28.556075-6.955472 24.576 13.157434 7.844226 50.388528-18.844176 41.926038zM903.64779833 499.119497c-19.797333 0-31.067774-18.052025-19.771572-31.660277 4.656302-5.609459 13.55673-10.201358 19.771572-10.201358s15.11527 4.591899 19.771573 10.201358c11.296201 13.608252 0.025761 31.660277-19.771573 31.660277z m111.87361-48.301887c-9.035673 0-28.15034-17.491723-28.150339-25.761006 0-5.87995 18.077786-25.761006 23.423195-25.761007 1.751748 0 8.790943 3.001157 15.649811 6.665661 20.286792 10.864704 12.02395 44.856352-10.922667 44.856352z m100.963824-61.085786C1094.74294333 382.834314 1102.76105633 341.333333 1125.83647833 341.333333c3.896352 0 10.568453 3.477736 14.812578 7.728302 18.322516 18.316075 0.392855 48.469333-24.163824 40.670189z" p-id="15727" fill="#515151"></path><path d="M99.24749733 567.695296c-22.28327 63.932377 13.83366 128.090164 95.373685 169.410817 54.561811 27.648 221.982591 80.747874 307.013233 97.376604 106.309233 20.789132 243.389987 29.45127 344.495497 21.780931l78.403622-5.950793 27.248705-25.116981c23.532679-21.697208 32.858164-25.793208 68.453434-30.043773 86.099723-10.297962 133.145761-5.776906 196.717484 18.902138 83.19517 32.291421 129.745308 37.810717 294.866918 35.002767 125.681509-2.138164 145.079547-3.889912 167.787874-15.160352 36.290818-18.026264 56.757937-50.562415 53.067673-84.335094-2.891673-26.456553-26.965333-82.113208-39.768553-91.953912-3.728906-2.865912-110.379472 1.397535-237.007698 9.46717-255.169208 16.268075-250.332579 15.392201-447.932378 81.488503-115.035774 38.493384-119.331421 38.13917-158.73288-12.687296-24.601761-31.731119-27.570717-33.54727-51.856906-31.705358-14.168553 1.081962-69.232704 16.029786-122.36478 33.218817-84.296453 27.268025-103.578566 31.267421-151.345912 31.344705-31.351145 0.045082-74.700478-4.85595-101.446842-11.482969-45.539019-11.283321-49.074717-13.679094-141.81434-96.204478C155.78002533 550.126289 152.13484233 547.421384 127.35919533 547.421384c-17.813736 0-22.128704 3.104201-28.111698 20.273912z" p-id="15728" fill="#515151"></path></svg>