<?xml version="1.0" standalone="no"?><!DOCTYPE svg PUBLIC "-//W3C//DTD SVG 1.1//EN" "http://www.w3.org/Graphics/SVG/1.1/DTD/svg11.dtd"><svg t="1605760248935" class="icon" viewBox="0 0 1024 1024" version="1.1" xmlns="http://www.w3.org/2000/svg" p-id="5685" width="48" height="48" xmlns:xlink="http://www.w3.org/1999/xlink"><defs><style type="text/css"></style></defs><path d="M908.48 640h-3.84L544 490.56v-46.4A128 128 0 1 0 384 320a32 32 0 0 0 64 0 64 64 0 1 1 64 64 32 32 0 0 0-32 32v96a32 32 0 0 0 19.84 29.44l378.24 155.52a38.72 38.72 0 0 1-21.12 71.04H167.04a37.44 37.44 0 0 1-37.12-28.48 36.8 36.8 0 0 1 16-42.56l64-32 249.6-91.84a32 32 0 0 0-22.08-60.16l-252.16 93.44h-3.2L115.52 640a102.72 102.72 0 0 0 51.52 192h689.92a102.72 102.72 0 0 0 51.52-192z" p-id="5686" fill="#515151"></path></svg>