<?xml version="1.0" standalone="no"?><!DOCTYPE svg PUBLIC "-//W3C//DTD SVG 1.1//EN" "http://www.w3.org/Graphics/SVG/1.1/DTD/svg11.dtd"><svg t="1605930169020" class="icon" viewBox="0 0 1024 1024" version="1.1" xmlns="http://www.w3.org/2000/svg" p-id="4093" width="32" height="32" xmlns:xlink="http://www.w3.org/1999/xlink"><defs><style type="text/css"></style></defs><path d="M103.8848 705.6384s-12.8-118.4256 101.632-68.5056c66.048 29.6448 89.6 91.8528 89.6 91.8528l2.4064-483.4816s68.2496-101.8368 127.6928 0l1.024 306.0736s73.8816-100.4544 160.768 7.0144c0 0 65.1264-109.4656 156.672 5.3248 0 0 64.9216-126.6176 130.048 11.008v384.256s-3.7376 29.952-56.576 63.8976H357.9904l-254.1056-317.44zM256 490.7008a256.0512 256.0512 0 1 1 204.8 0V370.4832a153.6 153.6 0 1 0-204.8 0v120.2176z" fill="#515151" p-id="4094"></path></svg>