<?xml version="1.0" standalone="no"?><!DOCTYPE svg PUBLIC "-//W3C//DTD SVG 1.1//EN" "http://www.w3.org/Graphics/SVG/1.1/DTD/svg11.dtd"><svg t="1605263276242" class="icon" viewBox="0 0 1024 1024" version="1.1" xmlns="http://www.w3.org/2000/svg" p-id="21954" width="32" height="32" xmlns:xlink="http://www.w3.org/1999/xlink"><defs><style type="text/css"></style></defs><path d="M809.032 571.424a59.424 59.424 0 0 0-59.424 59.416v118.84a59.424 59.424 0 0 1-59.424 59.424H274.248a59.424 59.424 0 0 1-59.424-59.424V274.32a59.424 59.424 0 0 1 59.424-59.424h237.68a59.424 59.424 0 0 0 0-118.84H214.824c-65.632 0-118.84 53.208-118.84 118.84v594.2c0 65.632 53.208 118.84 118.84 118.84h534.784c65.632 0 118.84-53.208 118.84-118.84V630.84a59.416 59.416 0 0 0-59.416-59.416zM910.904 233.2c-22.816-24.248-59.808-24.248-82.624 0L539.096 540.52 373.84 364.904c-22.816-24.24-59.808-24.24-82.624 0-22.816 24.248-22.816 63.56 0 87.808l206.56 219.52c22.808 24.248 59.808 24.248 82.624 0l330.496-351.224c22.824-24.256 22.824-63.568 0.008-87.808z" p-id="21955" fill="#515151"></path></svg>