<?xml version="1.0" standalone="no"?><!DOCTYPE svg PUBLIC "-//W3C//DTD SVG 1.1//EN" "http://www.w3.org/Graphics/SVG/1.1/DTD/svg11.dtd"><svg t="1605930064054" class="icon" viewBox="0 0 1024 1024" version="1.1" xmlns="http://www.w3.org/2000/svg" p-id="1752" width="32" height="32" xmlns:xlink="http://www.w3.org/1999/xlink"><defs><style type="text/css"></style></defs><path d="M1018.00738 326.493L930.78038 477.766c0.256 3.677 0.558 7.284 0.558 10.961h-6.842a46.545 46.545 0 0 1-28.393 21.737h-0.395a46.29 46.29 0 0 1-8.425 1.42h-2.327a29.137 29.137 0 0 1-11.264-1.21c-1.467-0.326-2.956-0.513-4.399-1.001a46.685 46.685 0 0 1-8.634-3.887L698.75038 412.16a46.801 46.801 0 0 1 46.732-81.082l70.842 40.96A325.353 325.353 0 0 0 218.38038 349.09h-8.494a46.545 46.545 0 1 1-78.08-34.048 417.862 417.862 0 0 1 771.048 23.994l34.211-59.345a46.755 46.755 0 1 1 80.943 46.801zM893.05538 708.957a417.839 417.839 0 0 1-771.048-23.994l-34.211 59.345A46.778 46.778 0 1 1 6.83038 697.484L94.08038 546.21c-0.257-3.654-0.56-7.261-0.56-10.938h6.843a46.545 46.545 0 0 1 28.37-21.737h0.395a47.104 47.104 0 0 1 8.448-1.536h2.327a29.137 29.137 0 0 1 11.264 1.21c1.467 0.326 2.956 0.512 4.399 1a46.685 46.685 0 0 1 8.634 3.887l161.909 93.627a46.801 46.801 0 0 1-46.732 81.082l-70.842-40.96a325.353 325.353 0 0 0 597.946 23.063h8.494a46.545 46.545 0 1 1 78.08 34.048z" p-id="1753" fill="#515151"></path></svg>