<?xml version="1.0" standalone="no"?><!DOCTYPE svg PUBLIC "-//W3C//DTD SVG 1.1//EN" "http://www.w3.org/Graphics/SVG/1.1/DTD/svg11.dtd"><svg t="1605080257881" class="icon" viewBox="0 0 1024 1024" version="1.1" xmlns="http://www.w3.org/2000/svg" p-id="11993" xmlns:xlink="http://www.w3.org/1999/xlink" width="75" height="75"><defs><style type="text/css"></style></defs><path d="M986.4192 322.8672l-160.768 161.9968c10.9568 13.824 22.016 28.3648 33.0752 43.52L1024 372.4288c-12.4928-17.1008-24.9856-33.6896-37.5808-49.5616zM0 417.5872L185.9584 539.648l-0.2048 0.3072c0.2048-0.4096 12.288-23.6544 34.2016-56.2176L32.768 360.8576c-19.456 30.8224-30.5152 52.3264-32.768 56.7296z m524.9024-219.0336c1.1264 0 2.1504 0 3.2768-0.1024 42.5984-2.2528 84.6848-50.5856 123.1872-140.4928-58.7776-20.2752-117.9648-27.648-177.0496-21.9136-32.768 3.1744-65.3312 10.3424-97.4848 21.504 31.744 58.2656 89.7024 141.0048 148.0704 141.0048z m427.52 83.1488c-67.7888-78.6432-137.1136-139.0592-207.0528-180.1216-15.6672-9.216-31.3344-17.408-47.104-24.6784-20.7872 49.5616-42.9056 88.8832-66.2528 117.3504-31.232 38.2976-65.4336 58.6752-101.6832 60.5184-1.8432 0.1024-3.7888 0.1024-5.632 0.1024-50.4832 0-101.1712-35.328-150.8352-105.0624-18.944-26.7264-34.2016-53.3504-44.4416-73.0112-20.7872 9.8304-41.2672 21.4016-61.5424 34.6112-50.688 32.9728-99.7376 76.3904-145.7152 129.024-22.8352 26.0096-42.496 51.712-59.0848 75.0592l189.1328 124.2112c2.3552-2.9696 4.7104-5.9392 7.168-8.9088V933.888H775.168V425.5744c5.5296 5.9392 10.9568 11.9808 16.4864 18.2272l160.768-162.0992z" p-id="11994" fill="#515151"></path></svg>